<svg width="200" height="22" viewBox="0 0 200 22" fill="none" xmlns="http://www.w3.org/2000/svg">
<g clip-path="url(#clip0_996_7933)">
<path d="M56.815 4.6375L46.75 21H41.8275L51.975 5.16H43.45L44.165 1.1725H57.42L56.815 4.6375ZM59.8993 1.31H63.5843L62.1818 9.175H70.4868L71.8893 1.31H75.6018L72.1093 21H68.3968L69.8818 12.695H61.5768L60.0918 21H56.4068L59.8993 1.31ZM82.7961 21.44C81.4944 21.44 80.3486 21.1467 79.3586 20.56C78.3686 19.955 77.5986 19.1483 77.0486 18.14C76.5169 17.1133 76.2511 15.995 76.2511 14.785C76.2511 13.3183 76.5994 11.9617 77.2961 10.715C77.9927 9.45 78.9644 8.44167 80.2111 7.69C81.4761 6.92 82.8969 6.535 84.4736 6.535C85.7386 6.535 86.8386 6.81 87.7736 7.36C88.7086 7.91 89.4236 8.63417 89.9186 9.5325C90.4136 10.4308 90.6611 11.4025 90.6611 12.4475C90.6611 13.2725 90.5419 14.07 90.3036 14.84H79.7711L79.7436 15.1425C79.7619 16.1142 80.0919 16.875 80.7336 17.425C81.3936 17.975 82.1819 18.25 83.0986 18.25C84.1069 18.25 84.9227 18.085 85.5461 17.755C86.1694 17.4067 86.6919 16.875 87.1136 16.16L89.8361 17.59C89.0294 18.8733 88.0761 19.8358 86.9761 20.4775C85.8761 21.1192 84.4827 21.44 82.7961 21.44ZM87.3336 12.2825V12.1725C87.3336 11.4392 87.0402 10.8067 86.4536 10.275C85.8669 9.74333 85.0969 9.4775 84.1436 9.4775C83.2086 9.4775 82.3836 9.7525 81.6686 10.3025C80.9719 10.8525 80.4861 11.5125 80.2111 12.2825H87.3336ZM96.8763 21.44C96.0329 21.44 95.2629 21.2475 94.5663 20.8625C93.8879 20.4592 93.3471 19.9275 92.9438 19.2675C92.5404 18.5892 92.3388 17.8558 92.3388 17.0675C92.3388 15.4908 92.8704 14.2533 93.9338 13.355C95.0154 12.4567 96.5646 12.0075 98.5813 12.0075C99.9196 12.0075 101.157 12.2367 102.294 12.695L102.431 12.09L102.486 11.485C102.486 10.8983 102.211 10.4125 101.661 10.0275C101.13 9.6425 100.47 9.45 99.6813 9.45C98.9846 9.45 98.3429 9.5875 97.7563 9.8625C97.1879 10.1192 96.7021 10.495 96.2988 10.99L93.9063 9.23C94.6213 8.35 95.5104 7.68083 96.5738 7.2225C97.6554 6.76417 98.8288 6.535 100.094 6.535C101.927 6.535 103.366 6.975 104.411 7.855C105.475 8.735 106.006 9.89 106.006 11.32C106.006 11.6867 105.96 12.1633 105.869 12.75L104.384 21H100.836L101.084 19.57H100.864C100.405 20.175 99.8554 20.6425 99.2138 20.9725C98.5721 21.2842 97.7929 21.44 96.8763 21.44ZM98.1138 18.635C99.1038 18.635 99.9379 18.3233 100.616 17.7C101.295 17.0583 101.707 16.2517 101.854 15.28C101.34 15.06 100.855 14.895 100.396 14.785C99.9379 14.675 99.3879 14.62 98.7463 14.62C97.8479 14.62 97.1604 14.8125 96.6838 15.1975C96.2071 15.5642 95.9688 16.0958 95.9688 16.7925C95.9688 17.3608 96.1704 17.81 96.5738 18.14C96.9771 18.47 97.4904 18.635 98.1138 18.635ZM110.699 1.31H114.301L110.836 21H107.234L110.699 1.31ZM120.644 21.22C119.434 21.22 118.472 20.8992 117.757 20.2575C117.06 19.5975 116.712 18.6442 116.712 17.3975C116.712 17.0492 116.758 16.5725 116.849 15.9675L117.867 10.055H115.447L115.997 6.975H118.444L119.132 3.015H122.734L122.047 6.975H125.457L124.907 10.055H121.469L120.452 15.8025C120.415 16.2058 120.397 16.4258 120.397 16.4625C120.397 16.8842 120.525 17.2233 120.782 17.48C121.038 17.7183 121.378 17.8375 121.799 17.8375C122.166 17.8375 122.487 17.7917 122.762 17.7C123.055 17.59 123.385 17.4342 123.752 17.2325L123.147 20.7525C122.377 21.0642 121.543 21.22 120.644 21.22ZM129.605 1.31H133.208L132.3 6.2875L131.668 8.735H131.888C132.346 8.03833 132.951 7.4975 133.703 7.1125C134.454 6.7275 135.325 6.535 136.315 6.535C137.708 6.535 138.808 6.9475 139.615 7.7725C140.422 8.57917 140.825 9.615 140.825 10.88C140.825 11.485 140.77 12.0808 140.66 12.6675L139.175 21H135.573L137.03 12.9425C137.103 12.5025 137.14 12.145 137.14 11.87C137.14 11.32 136.929 10.8525 136.508 10.4675C136.104 10.0825 135.563 9.89 134.885 9.89C133.84 9.89 132.988 10.2475 132.328 10.9625C131.686 11.6592 131.246 12.6767 131.008 14.015L129.743 21H126.14L129.605 1.31ZM144.994 21.165C144.334 21.165 143.766 20.9358 143.289 20.4775C142.831 20.0008 142.602 19.4325 142.602 18.7725C142.602 18.1125 142.831 17.5533 143.289 17.095C143.766 16.6367 144.334 16.4075 144.994 16.4075C145.654 16.4075 146.214 16.6367 146.672 17.095C147.149 17.5533 147.387 18.1125 147.387 18.7725C147.387 19.4325 147.149 20.0008 146.672 20.4775C146.214 20.9358 145.654 21.165 144.994 21.165ZM153.947 1.31H160.547C161.702 1.31 162.738 1.54833 163.655 2.025C164.571 2.50167 165.286 3.17083 165.8 4.0325C166.313 4.87583 166.57 5.85667 166.57 6.975C166.57 8.38667 166.24 9.60583 165.58 10.6325C164.938 11.6592 164.04 12.4383 162.885 12.97C161.73 13.5017 160.41 13.7675 158.925 13.7675H155.432L154.14 21H150.455L153.947 1.31ZM159.392 10.2475C160.437 10.2475 161.271 9.99083 161.895 9.4775C162.536 8.96417 162.857 8.22167 162.857 7.25C162.857 6.51667 162.637 5.93 162.197 5.49C161.757 5.05 161.143 4.83 160.355 4.83H157.027L156.065 10.2475H159.392ZM169.274 6.975H172.629L172.327 8.68H172.547C172.968 8.02 173.573 7.50667 174.362 7.14C175.15 6.755 176.021 6.5625 176.974 6.5625C177.653 6.5625 178.212 6.66333 178.652 6.865L178.019 10.55C177.744 10.3667 177.405 10.22 177.002 10.11C176.617 10 176.232 9.945 175.847 9.945C174.765 9.945 173.839 10.33 173.069 11.1C172.318 11.87 171.832 12.8417 171.612 14.015L170.402 21H166.799L169.274 6.975ZM184.957 21.44C183.655 21.44 182.5 21.1558 181.492 20.5875C180.484 20.0008 179.704 19.2125 179.154 18.2225C178.604 17.2325 178.329 16.1233 178.329 14.895C178.329 13.3367 178.678 11.925 179.374 10.66C180.071 9.37667 181.052 8.36833 182.317 7.635C183.6 6.90167 185.067 6.535 186.717 6.535C188.019 6.535 189.174 6.82833 190.182 7.415C191.19 7.98333 191.969 8.7625 192.519 9.7525C193.069 10.7425 193.344 11.8517 193.344 13.08C193.344 14.6383 192.996 16.0592 192.299 17.3425C191.603 18.6075 190.613 19.6067 189.329 20.34C188.064 21.0733 186.607 21.44 184.957 21.44ZM185.369 18.1125C186.158 18.1125 186.882 17.9108 187.542 17.5075C188.22 17.1042 188.752 16.545 189.137 15.83C189.54 15.115 189.742 14.3267 189.742 13.465C189.742 12.42 189.43 11.5675 188.807 10.9075C188.184 10.2292 187.349 9.89 186.304 9.89C185.516 9.89 184.792 10.0917 184.132 10.495C183.472 10.8983 182.94 11.4575 182.537 12.1725C182.152 12.8692 181.959 13.6483 181.959 14.51C181.959 15.555 182.262 16.4167 182.867 17.095C183.49 17.7733 184.324 18.1125 185.369 18.1125Z" fill="#393996"/>
</g>
<path fill-rule="evenodd" clip-rule="evenodd" d="M33.3708 3.15833L22.3122 22C18.7694 22 15.2265 22 11.6837 22L18.9616 9.66483H11.0586L12.8775 6.6661C16.7119 6.6661 20.5351 6.65594 24.3655 6.65594L17.0815 19.0015H20.4266L29.7384 3.14245H14.9928L16.899 0H33.3708V3.15833Z" fill="#389BC9"/>
<path d="M12.5488 16.7998L9.5421 21.9214H5.74805L8.76111 16.7998H12.5488Z" fill="#393996"/>
<defs>
<clipPath id="clip0_996_7933">
<rect width="154" height="20" fill="white" transform="translate(41.25 1)"/>
</clipPath>
</defs>
</svg>
