<svg width="22" height="22" viewBox="0 0 22 22" fill="none" xmlns="http://www.w3.org/2000/svg">
<path d="M10.0283 20.7625C9.58834 20.7625 9.1575 20.6525 8.75417 20.4325C7.9475 19.9833 7.46167 19.1675 7.46167 18.2508V13.3925C7.46167 12.9342 7.15917 12.2467 6.875 11.8983L3.44667 8.26833C2.86917 7.69083 2.42917 6.70083 2.42917 5.95833V3.85C2.42917 2.38333 3.53834 1.2375 4.95 1.2375H17.05C18.4433 1.2375 19.5708 2.365 19.5708 3.75833V5.775C19.5708 6.7375 18.9933 7.82833 18.4525 8.36916L14.4833 11.88C14.0983 12.2008 13.7958 12.9067 13.7958 13.475V17.4167C13.7958 18.2325 13.2825 19.1767 12.6408 19.5617L11.3758 20.3775C10.9633 20.6342 10.4958 20.7625 10.0283 20.7625ZM4.95 2.6125C4.30834 2.6125 3.80417 3.15333 3.80417 3.85V5.95833C3.80417 6.2975 4.07917 6.9575 4.4275 7.30583L7.92 10.9817C8.3875 11.5592 8.84584 12.5217 8.84584 13.3833V18.2417C8.84584 18.8375 9.25834 19.1308 9.4325 19.2225C9.8175 19.4333 10.285 19.4333 10.6425 19.2133L11.9167 18.3975C12.1733 18.2417 12.43 17.7467 12.43 17.4167V13.475C12.43 12.4942 12.9067 11.4125 13.5942 10.835L17.5175 7.36083C17.8292 7.04916 18.205 6.30666 18.205 5.76583V3.75833C18.205 3.12583 17.6917 2.6125 17.0592 2.6125H4.95Z" fill="#393996"/>
<path d="M5.50002 9.85417C5.37169 9.85417 5.25252 9.8175 5.13335 9.75333C4.81252 9.55167 4.71169 9.12083 4.91335 8.8L9.43252 1.55833C9.63419 1.2375 10.0559 1.13667 10.3767 1.33833C10.6975 1.54 10.7984 1.96167 10.5967 2.2825L6.07752 9.52417C5.94919 9.735 5.72919 9.85417 5.50002 9.85417Z" fill="#393996"/>
</svg>
