<svg width="24" height="24" viewBox="0 0 18 20" fill="none" xmlns="http://www.w3.org/2000/svg">
<path fill-rule="evenodd" clip-rule="evenodd" d="M6.75 3.5C6.75 1.70507 5.29493 0.25 3.5 0.25C1.70507 0.25 0.25 1.70507 0.25 3.5C0.25 5.29493 1.70507 6.75 3.5 6.75C4.45963 6.75 5.32211 6.33409 5.91703 5.6727L8.63434 7.15487L11.6749 8.89231C11.4045 9.36641 11.25 9.91516 11.25 10.5C11.25 10.7963 11.2897 11.0834 11.364 11.3562L5.91703 14.3273C5.32211 13.6659 4.45963 13.25 3.5 13.25C1.70507 13.25 0.25 14.7051 0.25 16.5C0.25 18.2949 1.70507 19.75 3.5 19.75C5.29493 19.75 6.75 18.2949 6.75 16.5C6.75 16.2036 6.71033 15.9166 6.63602 15.6438L12.083 12.6727C12.6779 13.3341 13.5404 13.75 14.5 13.75C16.2949 13.75 17.75 12.2949 17.75 10.5C17.75 8.70507 16.2949 7.25 14.5 7.25C13.8493 7.25 13.2433 7.44122 12.7351 7.77052L9.36565 5.84514L6.63602 4.35625C6.71033 4.08344 6.75 3.79635 6.75 3.5ZM3.5 1.75C4.4665 1.75 5.25 2.5335 5.25 3.5C5.25 4.4665 4.4665 5.25 3.5 5.25C2.5335 5.25 1.75 4.4665 1.75 3.5C1.75 2.5335 2.5335 1.75 3.5 1.75ZM14.5 8.75C15.4665 8.75 16.25 9.5335 16.25 10.5C16.25 11.4665 15.4665 12.25 14.5 12.25C13.5335 12.25 12.75 11.4665 12.75 10.5C12.75 9.5335 13.5335 8.75 14.5 8.75ZM5.25 16.5C5.25 15.5335 4.4665 14.75 3.5 14.75C2.5335 14.75 1.75 15.5335 1.75 16.5C1.75 17.4665 2.5335 18.25 3.5 18.25C4.4665 18.25 5.25 17.4665 5.25 16.5Z" fill="black"/>
</svg>
