<?xml version="1.0" encoding="UTF-8"?>
<svg xmlns="http://www.w3.org/2000/svg" version="1.1" viewBox="0 0 954.9 188.4">
  <defs>
    <style>
      .cls-1 {
        fill: #fefefe;
      }

      .cls-1, .cls-2 {
        fill-rule: evenodd;
      }

      .cls-2 {
        fill: #e31e24;
      }

      .cls-3 {
        fill: #254287;
      }
    </style>
  </defs>
  <!-- Generator: Adobe Illustrator 28.6.0, SVG Export Plug-In . SVG Version: 1.2.0 Build 709)  -->
  <g>
    <g id="Layer_1">
      <path class="cls-3" d="M96.6,38.3h-14.1c-3,.7-5.6,2-7.1,4.1l-3.9,5.7-3.9-5.7c-1.5-2.1-4.1-3.4-7.1-4.1h-12.3v24.3c0,13.3,10.9,24.2,24.2,24.2h24.3v-48.5Z"/>
      <path class="cls-3" d="M120.8,135.3h24.3v-48.5h-48.5v24.3c0,13.3,10.9,24.2,24.2,24.2"/>
      <path class="cls-3" d="M10.5,129.7h48.5v-24.3c0-13.3-10.9-24.2-24.2-24.2H10.5v48.5Z"/>
      <path class="cls-3" d="M59,178.1h48.5v-24.3c0-13.3-10.9-24.2-24.2-24.2h-24.3v48.5Z"/>
      <path class="cls-2" d="M71.4,12.3c-3.6,0-11.2.2-20.5,3.5l-7.2,17.4s20.9-3.2,27.7,6.5c6.7-9.7,27.7-6.5,27.7-6.5l-7.2-17.4c-9.3-3.3-16.8-3.6-20.5-3.5"/>
      <polygon class="cls-1" points="69.4 18.3 73.4 18.3 73.4 21.9 77 21.9 77 25.9 73.4 25.9 73.4 29.5 69.4 29.5 69.4 25.9 65.8 25.9 65.8 21.9 69.4 21.9 69.4 18.3"/>
      <polygon class="cls-3" points="255 142 256.8 142 301.2 33.3 327.5 33.3 277.1 157.1 234.7 157.1 184.3 33.3 210.6 33.3 255 142"/>
      <path class="cls-3" d="M376.5,43c0,3.5-1.2,6.6-3.6,9.3-2.4,2.6-5.6,4-9.6,4s-7.2-1.3-9.6-4c-2.4-2.7-3.6-5.7-3.6-9.3s1.2-6.6,3.6-9.3c2.4-2.7,5.6-4,9.6-4s7.1,1.3,9.5,4c2.5,2.6,3.7,5.7,3.7,9.3M375.6,157.1h-24.8v-90.2h24.8v90.2Z"/>
      <path class="cls-3" d="M430.8,84.6c0,2.7,1.2,5.2,3.6,7.4,2.4,2.2,6.5,4.2,12.3,5.8l27.4,8c8.5,2.5,15,5.8,19.6,10.1,4.6,4.3,6.9,9.7,6.9,16.4s-.9,8.1-2.6,11.6c-1.8,3.5-4.7,6.5-8.7,8.9-4,2.5-9.2,4.4-15.6,5.7-6.4,1.4-14.2,2-23.5,2s-9.6-.3-14.2-1.1c-4.7-.7-9.1-1.7-13.3-2.9-4.2-1.2-8-2.6-11.4-4.2-3.4-1.6-6.4-3.3-8.8-5l7.1-10.6c4.9,3.1,10.8,5.8,17.4,8,6.7,2.3,14.4,3.5,23.2,3.5s15-1.2,18.6-3.5c3.5-2.3,5.3-5.3,5.3-8.8s-1.2-5.2-3.7-7.3c-2.5-2.2-6.8-4.2-13.1-5.9l-27.4-8c-7.5-2.2-13.7-5.5-18.5-9.6-4.8-4.2-7.2-9.8-7.2-16.9s.8-7.3,2.6-10.5c1.7-3.2,4.4-6,8-8.4,3.7-2.4,8.3-4.2,14-5.6,5.7-1.4,12.5-2,20.5-2s18.7,1.3,26.6,4c8,2.7,14.4,5.7,19.4,9.3l-7.1,10.6c-4.8-3.1-10.3-5.7-16.4-8-6.1-2.3-13.6-3.4-22.5-3.4s-10.9,1-14,3c-3.1,2-4.6,4.5-4.6,7.6"/>
      <path class="cls-3" d="M576.2,61.6c3.8,0,7.5.3,11.3,1,3.8.7,7.4,1.5,10.9,2.6,3.5,1.1,6.7,2.5,9.7,4.2,3,1.6,5.6,3.5,7.9,5.5l-7.1,10.6c-4.8-3.6-9.8-6.5-14.8-8.5-5-2-10.4-3-16.2-3s-8.1.7-11.7,2c-3.5,1.3-6.6,3.5-9.2,6.5-2.6,3-4.6,6.9-6.1,11.6-1.5,4.7-2.2,10.4-2.2,17s.7,12.3,2.2,17c1.5,4.7,3.6,8.6,6.3,11.6,2.7,3,6,5.2,9.8,6.5,3.8,1.4,8,2,12.6,2s11.2-1,16.2-3c5-2,9.9-4.8,14.8-8.5l7.1,10.6c-2.2,2-4.9,3.8-7.9,5.5-3,1.6-6.2,3-9.7,4.1-3.5,1.1-7.1,2-10.9,2.7-3.8.7-7.5,1-11.3,1-8.4,0-16-1.1-22.9-3.3-6.9-2.2-12.8-5.4-17.6-9.5-4.8-4.2-8.6-9.3-11.2-15.5-2.6-6.1-4-13.2-4-21.2s1.3-14.9,4-21.1c2.7-6.2,6.3-11.4,11.1-15.6,4.7-4.2,10.4-7.4,17-9.6,6.6-2.2,13.9-3.3,21.9-3.3"/>
      <path class="cls-3" d="M685.3,73.1c-3.4,0-6.6.6-9.5,1.9-2.9,1.3-5.5,3.4-7.7,6.2-2.2,2.8-3.9,6.5-5.3,11-1.4,4.5-2.1,9.9-2.2,16.3h49.5c0-6.1-.7-11.4-2.1-15.9-1.4-4.5-3.3-8.2-5.6-11-2.3-2.9-4.9-5-8-6.4-3-1.4-6-2-9.1-2M691.5,148.2c5.8,0,11.2-1,16.2-3,5-2,9.9-4.8,14.8-8.5l7.1,10.6c-2.2,2-4.9,3.8-7.9,5.5-3,1.6-6.2,3-9.7,4.1-3.5,1.1-7.1,2-10.9,2.7-3.8.7-7.5,1-11.3,1-8.4,0-16-1.1-22.9-3.3-6.9-2.2-12.8-5.4-17.6-9.5-4.8-4.2-8.6-9.3-11.2-15.5-2.7-6.1-4-13.2-4-21.2s1.3-14.9,3.8-21.1c2.5-6.2,6.1-11.4,10.6-15.6,4.5-4.2,9.9-7.4,16.2-9.5,6.2-2.2,13.1-3.3,20.7-3.3s13.7,1.1,20,3.2c6.2,2.1,11.7,5.2,16.3,9.3,4.6,4.1,8.2,9,11,14.8,2.7,5.8,4.1,12.3,4.1,19.6v12.4h-75.5c1.4,9.8,4.8,16.8,10.2,21,5.4,4.2,12.1,6.4,20.2,6.4Z"/>
      <path class="cls-3" d="M835,77.5h-21.2c-8,0-14.1,2.2-18.4,6.5-4.2,4.3-6.4,10.7-6.4,19.2v53.9h-24.8v-53.9c0-12,3.8-21.4,11.4-28,7.6-6.7,18.5-10,32.8-10h26.5v12.4Z"/>
      <path class="cls-3" d="M917.6,98.7c0-8.5-2.2-14.7-6.6-18.7-4.4-4-10.2-6-17.2-6s-10.5.8-15.6,2.4c-5.1,1.6-9.6,3.7-13.6,6.5l-6.2-10.6c2.6-1.8,5.5-3.3,8.6-4.6,3.1-1.3,6.3-2.4,9.6-3.3,3.3-.9,6.6-1.6,9.8-2,3.2-.5,6.3-.7,9.1-.7,7.5,0,14.2.9,20,2.7,5.8,1.8,10.7,4.3,14.7,7.6,4,3.3,7,7.2,9.1,11.8,2.1,4.5,3.1,9.6,3.1,15.1v58.3h-49.5c-16,0-27.8-2.4-35.4-7.2-7.6-4.8-11.4-12.1-11.4-21.9s3.8-17.1,11.4-21.9c7.6-4.8,19.4-7.2,35.4-7.2h24.8ZM872.6,127.9c0,11.2,6.8,16.8,20.3,16.8h24.8v-33.6h-24.8c-13.6,0-20.3,5.6-20.3,16.8Z"/>
    </g>
  </g>
</svg>