<svg width="24" height="24" viewBox="0 0 24 24" fill="currentColor" xmlns="http://www.w3.org/2000/svg">
<path d="M14.9697 22.75H8.96973C3.53973 22.75 1.21973 20.43 1.21973 15V9C1.21973 3.57 3.53973 1.25 8.96973 1.25H14.9697C20.3997 1.25 22.7197 3.57 22.7197 9V15C22.7197 20.43 20.4097 22.75 14.9697 22.75ZM8.96973 2.75C4.35973 2.75 2.71973 4.39 2.71973 9V15C2.71973 19.61 4.35973 21.25 8.96973 21.25H14.9697C19.5797 21.25 21.2197 19.61 21.2197 15V9C21.2197 4.39 19.5797 2.75 14.9697 2.75H8.96973Z" fill="currentColor"/>
<path d="M7.96973 22.75C7.55973 22.75 7.21973 22.41 7.21973 22V2C7.21973 1.59 7.55973 1.25 7.96973 1.25C8.37973 1.25 8.71973 1.59 8.71973 2V22C8.71973 22.41 8.38973 22.75 7.96973 22.75Z" fill="currentColor"/>
<path d="M12.42 15.31C12.61 15.31 12.8 15.24 12.95 15.09L15.51 12.53C15.8 12.24 15.8 11.76 15.51 11.47L12.95 8.91C12.66 8.62 12.18 8.62 11.89 8.91C11.6 9.2 11.6 9.68001 11.89 9.97001L13.91 12L11.88 14.03C11.59 14.32 11.59 14.8 11.88 15.09C12.03 15.24 12.22 15.31 12.42 15.31Z" fill="currentColor"/>
</svg>
