<svg width="24" height="24" viewBox="0 0 24 24" fill="none" xmlns="http://www.w3.org/2000/svg">
<path d="M21 7.75H3C2.59 7.75 2.25 7.41 2.25 7C2.25 6.59 2.59 6.25 3 6.25H21C21.41 6.25 21.75 6.59 21.75 7C21.75 7.41 21.41 7.75 21 7.75Z" fill="currentColor"/>
<path d="M17.22 12.75H7.75C7.34 12.75 7 12.41 7 12C7 11.59 7.34 11.25 7.75 11.25H17.22C17.63 11.25 17.97 11.59 17.97 12C17.97 12.41 17.64 12.75 17.22 12.75Z" fill="currentColor"/>
<path d="M21 17.75H3C2.59 17.75 2.25 17.41 2.25 17C2.25 16.59 2.59 16.25 3 16.25H21C21.41 16.25 21.75 16.59 21.75 17C21.75 17.41 21.41 17.75 21 17.75Z" fill="currentColor"/>
</svg>
