<svg id="Layer_1" data-name="Layer 1" xmlns="http://www.w3.org/2000/svg" viewBox="0 0 2000 580"><defs><style>.cls-1{fill:#3acbe8;}.cls-2{fill:#0141c5;}</style></defs><title>Viscera</title><path class="cls-1" d="M441.89,362.91l-1,0-.73.73c-2,2-4,4-6.11,6.06-31.27,30.65-64.9,58.31-82.81,72.57l-.91.73-.92-.49A984.4,984.4,0,0,1,252,382.15q-4.33-3.07-8.54-6.14l-1-.75-1.47.2c-2.83.39-5.62.68-8.29.84a187.36,187.36,0,0,1-46.84-2.93L173.64,371l8.54,6.57c12.81,9.84,26.64,19.74,41,29.41A988.61,988.61,0,0,0,340,474.28l10.26,4.83,10.08-8c2.08-1.65,49.44-39.27,93.63-84.13,9.39-9.55,18.06-18.84,25.8-27.64l5-5.71-7.17,2.73a102,102,0,0,1-30,6.43C445.83,362.93,443.89,363,441.89,362.91Z"/><path class="cls-2" d="M446.4,195.89c-18.59-1.84-40.82,6.67-66.48,26-2.14,1.62-4.39,3.38-6.68,5.23l-.1.08c-6.31,5.13-6.73,13.79-1,20l11.06,12,1.87-1.76c3.68-3.47,7.37-6.76,10.95-9.77q2.16-1.81,4.27-3.51c19-15.24,35.25-23,46.08-22.16,29.58,2.18,52.41,25.62,52.41,52.35S476,323.48,446.4,324.23c-11.54.29-29.75-9.75-50.34-28.1-1.64-1.46-3.25-2.93-4.81-4.39l-1-.91c-8-7.53-14.79-14.81-19.36-19.89l-.1.06-.86-1.1c-.35-.47-.79-.95-1.26-1.47-.88-1-2.13-2.34-3.65-4-3-3.3-7.12-7.72-11.24-12.17-8.32-9-16.78-18.11-16.78-18.11L335.87,233c-3.1-3-6.3-6-9.48-8.86-32.72-29.5-63.81-46.47-91.94-49.25-70.71-7-134.45,33-134.45,89.86s63.74,100,134.45,96.38c26-1.31,54.62-14.66,84.65-38.76,2.59-2.09,5-4.07,7.29-6l.18-.16c6.77-5.81,7.22-14.76,1.05-20.93L315.41,283l-2.12,1.92c-4.2,3.82-8.5,7.52-12.78,11-1.69,1.38-3.37,2.71-5,4-23.79,18.52-45.63,29.25-61,29.63-45.87,1.16-85.76-27.36-85.76-63.65,0-17.8,9.66-34,26.85-45.45,16.2-10.76,36.85-15.68,58-14.12l.93.08c17.75,1.46,38.91,13.41,66,36.83,2.73,2.35,5.48,4.81,8.17,7.28l1.17,1.1c8,7.42,50.05,51.33,54.63,56.12l.15.15,1.06,1,1,.92q3.35,3,6.55,5.78c28.52,24.44,53,35.83,73.16,34.81,44.08-2.23,77.26-36,77.26-75.39S490.48,200.26,446.4,195.89Z"/><path class="cls-2" d="M226.07,162.1c21.56,2.34,38.5-9,38.5-25.17s-16.94-32-38.5-35.4c-22.33-3.5-41,7.56-41,24.84S203.74,159.67,226.07,162.1Z"/><path class="cls-2" d="M452.1,186.66c14.53,1.57,26-8,26-21.37s-11.47-26-26-28.27c-14.94-2.34-27.39,7.11-27.39,21.18S437.16,185,452.1,186.66Z"/><path class="cls-2" d="M773.81,191.59,689.58,407.82H656.44L570.22,191.59h39.19L672.88,357,735,191.59Z"/><path class="cls-2" d="M805.12,191.59H840.6V407.82H805.12Z"/><path class="cls-2" d="M876.06,338.5h36c0,23.46,19.89,36.43,45.24,36.43,23,0,42.69-11.73,42.69-31,0-20.88-23.16-26.15-49.23-32.1-33.09-7.8-71-16.66-71-60,0-37.87,29.57-60.23,75.65-60.23,46.92,0,74.68,24.8,74.68,64.39H995c0-20.93-17.81-32.27-40.39-32.27-21.55,0-39.37,9.58-39.37,26.65,0,19.39,22.23,24.66,47.9,30.61,33.62,8.09,73.22,17.43,73.22,62.54,0,42-34.92,64.31-78.7,64.31C909.12,407.82,876.06,381.39,876.06,338.5Z"/><path class="cls-2" d="M1175.36,407.82c-64,0-111.17-45.73-111.17-108,0-62.47,47.18-108.2,111.17-108.2,51.15,0,92.15,30.78,103.49,77.79h-35.92c-10.32-27.81-35.55-44.64-67.57-44.64-43.31,0-75.06,31.48-75.06,75.05s31.75,74.88,75.06,74.88c33,0,58.57-18,68.31-47.63h36c-11.25,49.11-52.25,80.78-104.33,80.78Z"/><polygon class="cls-2" points="1315.6 281.29 1315.6 407.82 1459.77 407.82 1459.77 374.29 1351.09 374.29 1351.09 313.81 1459.77 313.81 1459.77 281.29 1315.6 281.29"/><rect class="cls-2" x="1315.6" y="191.59" width="144.17" height="33.23"/><path class="cls-2" d="M1625.45,322.81c26.43-9.83,44-33.33,44-62.81,0-39.9-31-68.41-72.65-68.41h-87.51v33.22h85.44c23.5,0,38.62,14.77,38.62,34.88,0,20.33-15.12,34.88-38.62,34.88h-24.64l65.52,113.25h39.81Z"/><polygon class="cls-2" points="1810.56 191.59 1777.2 191.59 1690.32 407.82 1728.01 407.82 1746.4 360.76 1758.66 328.99 1794.31 237.81 1830.47 328.99 1842.82 360.76 1861.51 407.82 1900 407.82 1810.56 191.59"/><rect class="cls-1" x="1509.25" y="376.27" width="31.55" height="31.55"/><rect class="cls-1" x="1779.39" y="376.27" width="31.55" height="31.55"/></svg>