<svg width="23" height="32" viewBox="0 0 23 32" fill="none" xmlns="http://www.w3.org/2000/svg">
<path opacity="0.6" d="M7.288 31.616L13.012 23.48L7.504 15.488H3.58V26H0.52V0.223999H9.232C10.648 0.223999 11.968 0.547999 13.192 1.196C14.44 1.844 15.424 2.756 16.144 3.932C16.888 5.084 17.26 6.392 17.26 7.856C17.26 9.056 16.984 10.172 16.432 11.204C15.88 12.236 15.136 13.1 14.2 13.796C13.264 14.492 12.22 14.96 11.068 15.2L10.996 15.308L14.848 20.888L18.556 15.56H21.904V15.704L16.576 23.408L22.336 31.616V31.76H18.772L14.776 26L10.816 31.76H7.288V31.616ZM9.052 12.644C9.964 12.644 10.804 12.44 11.572 12.032C12.34 11.624 12.952 11.06 13.408 10.34C13.888 9.596 14.128 8.768 14.128 7.856C14.128 7.064 13.924 6.308 13.516 5.588C13.132 4.868 12.568 4.28 11.824 3.824C11.08 3.368 10.228 3.14 9.268 3.14H3.58V12.644H9.052Z" fill="black"/>
</svg>
