<svg width="10" height="10" viewBox="0 0 24 24" fill="none" xmlns="http://www.w3.org/2000/svg">
<g opacity="0.3">
<path fill-rule="evenodd" clip-rule="evenodd" d="M7.4012 18.0006C5.9304 18.0006 4.73242 16.8034 4.73242 15.3318C4.73242 15.1124 4.91054 14.9343 5.1299 14.9343C5.34926 14.9343 5.52738 15.1124 5.52738 15.3318C5.52738 16.3656 6.36838 17.2056 7.4012 17.2056C8.43403 17.2056 9.27503 16.3656 9.27503 15.3318C9.27503 15.1124 9.45315 14.9343 9.67251 14.9343C9.89187 14.9343 10.07 15.1124 10.07 15.3318C10.07 16.8034 8.87214 18.0006 7.4012 18.0006Z" fill="black"/>
<path fill-rule="evenodd" clip-rule="evenodd" d="M0.403757 13.6965L0.403764 13.6965L0.405193 13.6953C0.417252 13.6847 0.43091 13.6745 0.446074 13.6647L0.456331 13.6581L0.465536 13.65C1.61387 12.6479 2.2713 11.2059 2.2713 9.68317V7.57087C2.2713 5.1839 3.88799 3.13604 6.20299 2.5885C6.41875 2.53906 6.63211 2.67107 6.68221 2.88413L6.68222 2.88416C6.73251 3.09785 6.59986 3.31195 6.38713 3.36225C4.43142 3.82414 3.06626 5.55568 3.06626 7.57087V9.68317C3.06626 11.4615 2.28715 13.1442 0.930125 14.2997L0.923442 14.3051L0.923415 14.3051C0.91563 14.3114 0.913255 14.3134 0.909404 14.316L0.887876 14.3307L0.87172 14.3511C0.832186 14.4011 0.794956 14.4767 0.794956 14.5742C0.794956 14.7711 0.957589 14.9337 1.15453 14.9337H13.6467C13.8437 14.9337 14.0064 14.7712 14.0064 14.5742C14.0064 14.4755 13.9688 14.3997 13.9267 14.3485L13.9131 14.3319L13.8958 14.3193C13.8871 14.3129 13.8803 14.3076 13.8743 14.3023L13.8731 14.3013C13.213 13.7384 12.6925 13.0598 12.326 12.2831L12.3258 12.2826C12.2317 12.0848 12.3159 11.8479 12.5151 11.7534C12.7158 11.6592 12.9498 11.7447 13.0439 11.9434C13.3536 12.5976 13.7881 13.1721 14.3371 13.6523L14.3444 13.6587L14.3525 13.6642C14.3727 13.6782 14.3857 13.6876 14.3948 13.6955L14.3963 13.6968C14.6543 13.9166 14.8014 14.2362 14.8014 14.5742C14.8014 15.2106 14.2833 15.7287 13.6467 15.7287H1.15453C0.518037 15.7287 0 15.2106 0 14.5742C0 14.2361 0.147121 13.9163 0.403757 13.6965Z" fill="black"/>
</g>
<path d="M12.9211 9.84227C10.2077 9.84227 8 7.6346 8 4.9212C8 2.20767 10.2077 0 12.9211 0C15.6346 0 17.8423 2.20767 17.8423 4.9212C17.8423 7.6346 15.6346 9.84227 12.9211 9.84227ZM12.9211 1.13565C10.8337 1.13565 9.13565 2.83386 9.13565 4.9212C9.13565 7.00854 10.8337 8.70662 12.9211 8.70662C15.0084 8.70662 16.7066 7.00854 16.7066 4.9212C16.7066 2.83386 15.0084 1.13565 12.9211 1.13565Z" fill="#0957DE"/>
<path d="M13.3222 4.836C13.5115 4.892 13.6648 4.99067 13.7822 5.132C13.9022 5.27067 13.9622 5.43867 13.9622 5.636C13.9622 5.924 13.8648 6.14933 13.6702 6.312C13.4782 6.47467 13.2422 6.556 12.9622 6.556C12.7435 6.556 12.5475 6.50667 12.3742 6.408C12.2035 6.30667 12.0795 6.15867 12.0022 5.964L12.4742 5.692C12.5435 5.908 12.7062 6.016 12.9622 6.016C13.1035 6.016 13.2128 5.98267 13.2902 5.916C13.3702 5.84667 13.4102 5.75333 13.4102 5.636C13.4102 5.52133 13.3702 5.42933 13.2902 5.36C13.2128 5.29067 13.1035 5.256 12.9622 5.256H12.8422L12.6302 4.936L13.1822 4.216H12.0862V3.7H13.8462V4.156L13.3222 4.836Z" fill="#393A96"/>
</svg>
