<svg id="Layer_1" data-name="Layer 1" xmlns="http://www.w3.org/2000/svg" viewBox="0 0 877 768"><defs><style>.cls-1{fill:#3acbe8;}.cls-2{fill:#0141c5;}</style></defs><title>Viscera</title><path class="cls-1" d="M668.19,512.77l-1.82,0L665.09,514c-3.52,3.53-7.1,7.1-10.79,10.71-55.23,54.12-114.62,103-146.24,128.17l-1.62,1.28-1.62-.87a1738.19,1738.19,0,0,1-172-106.56c-5.11-3.61-10.12-7.22-15.09-10.84l-1.82-1.32-2.6.36c-5,.68-9.92,1.18-14.65,1.48a330.37,330.37,0,0,1-82.71-5.19l-21.49-4.11,15.1,11.6c22.62,17.38,47,34.87,72.48,51.94,107,71.78,202.47,117,206.3,118.79L506.44,718l17.8-14.1c3.68-2.91,87.31-69.36,165.35-148.59,16.6-16.85,31.91-33.26,45.57-48.81L744,496.41l-12.67,4.82a180.71,180.71,0,0,1-53,11.36C675.15,512.79,671.73,512.85,668.19,512.77Z"/><path class="cls-2" d="M812.6,357.53c0-69.59-58.59-132-136.44-139.73-32.83-3.26-72.1,11.78-117.4,46-3.79,2.86-7.76,6-11.81,9.24l-.18.14c-11.14,9.05-11.88,24.34-1.7,35.38l19.53,21.18,3.3-3.11c6.51-6.13,13-11.93,19.34-17.26q3.81-3.19,7.55-6.19C628.34,276.24,657,262.61,676.16,264c52.23,3.85,92.57,45.24,92.57,92.45s-40.34,86.65-92.57,88c-20.39.51-52.53-17.22-88.91-49.63-2.88-2.57-5.73-5.17-8.48-7.75l-1.7-1.6c-14.11-13.31-26.13-26.15-34.19-35.13l-.18.11-1.52-1.94c-.62-.83-1.39-1.69-2.22-2.6-1.55-1.71-3.77-4.14-6.45-7.05-5.36-5.83-12.58-13.64-19.85-21.5-14.7-15.89-29.64-32-29.64-32L481,283.33c-5.47-5.3-11.12-10.57-16.75-15.64-57.78-52.09-112.69-82.07-162.37-87C177,168.33,64.4,238.92,64.4,339.4S177,516,301.84,509.63c45.94-2.33,96.46-25.91,149.5-68.47,4.58-3.68,8.79-7.17,12.87-10.67l.32-.27c12-10.26,12.75-26.06,1.87-37l-21.58-21.6-3.74,3.39c-7.42,6.74-15,13.28-22.57,19.45q-4.49,3.63-8.88,7.07c-42,32.7-80.59,51.65-107.79,52.34-81,2-151.45-48.32-151.45-112.42,0-31.43,17.06-60.08,47.41-80.26,28.61-19,65.09-27.69,102.44-24.94l1.64.13c31.35,2.59,68.71,23.69,116.62,65.05,4.81,4.16,9.66,8.49,14.43,12.87l2.06,1.93c14.09,13.11,88.39,90.66,96.48,99.11l.27.26c.54.51,1.15,1.06,1.86,1.72l1.78,1.62c3.94,3.57,7.81,7,11.57,10.21,50.37,43.17,93.55,63.28,129.21,61.48C754,486.73,812.6,427.13,812.6,357.53Z"/><path class="cls-2" d="M355,113.67c0,28.63-29.92,48.58-68,44.45-39.44-4.29-72.45-32.6-72.45-63.11s33-50,72.45-43.85C325.12,57.14,355,85,355,113.67Z"/><path class="cls-2" d="M732.15,163.76c0,23.59-20.27,40.51-45.92,37.73-26.4-2.87-48.37-25.4-48.37-50.25s22-41.55,48.37-37.4C711.88,117.86,732.15,140.17,732.15,163.76Z"/></svg>