<svg width="50" height="50" viewBox="0 0 50 50" fill="none" xmlns="http://www.w3.org/2000/svg">
<circle cx="24.9812" cy="24.8557" r="24.5" fill="#ECECF5"/>
<path fill-rule="evenodd" clip-rule="evenodd" d="M18.0043 15.1001H16.8415C14.4333 15.1001 12.481 17.0525 12.481 19.4606V33.4144C12.481 35.8226 14.4333 37.775 16.8415 37.775H25.9998C25.5975 36.9866 25.537 36.0598 25.8475 35.2168C26.3929 33.7284 27.4499 32.483 28.8045 31.6969C27.9999 30.8609 27.5045 29.7236 27.5045 28.4725C27.5045 25.905 29.5883 23.8212 32.1558 23.8212C33.2988 23.8212 34.3453 24.234 35.1558 24.9189V19.4606C35.1558 17.0525 33.2035 15.1001 30.7953 15.1001H29.6325V17.7164C29.6325 18.1978 29.2417 18.5885 28.7603 18.5885C28.2789 18.5885 27.8882 18.1978 27.8882 17.7164V15.1001H19.7485V17.7164C19.7485 18.1978 19.3578 18.5885 18.8764 18.5885C18.395 18.5885 18.0043 18.1978 18.0043 17.7164V15.1001ZM18.0043 29.0539H23.8184C24.2998 29.0539 24.6905 28.6632 24.6905 28.1817C24.6905 27.7003 24.2998 27.3096 23.8184 27.3096H18.0043C17.5229 27.3096 17.1322 27.7003 17.1322 28.1817C17.1322 28.6632 17.5229 29.0539 18.0043 29.0539ZM18.0043 24.4026H21.609C22.0904 24.4026 22.4812 24.0119 22.4812 23.5305C22.4812 23.0491 22.0904 22.6584 21.609 22.6584H18.0043C17.5229 22.6584 17.1322 23.0491 17.1322 23.5305C17.1322 24.0119 17.5229 24.4026 18.0043 24.4026Z" fill="#393A96"/>
<path d="M32.1557 31.9613C34.0823 31.9613 35.6441 30.3994 35.6441 28.4728C35.6441 26.5462 34.0823 24.9844 32.1557 24.9844C30.2291 24.9844 28.6672 26.5462 28.6672 28.4728C28.6672 30.3994 30.2291 31.9613 32.1557 31.9613Z" fill="#393A96"/>
<path fill-rule="evenodd" clip-rule="evenodd" d="M28.8499 38.3559L35.4698 38.3408C36.1221 38.3408 36.7407 38.0175 37.1187 37.4757C37.4966 36.9338 37.5849 36.2419 37.357 35.6221C36.5977 33.493 34.5546 31.9604 32.1558 31.9604C29.7604 31.9604 27.7185 33.4884 26.9394 35.6175C26.7091 36.2419 26.7987 36.9396 27.1801 37.485C27.5603 38.0315 28.1848 38.3559 28.8499 38.3559Z" fill="#393A96"/>
<path fill-rule="evenodd" clip-rule="evenodd" d="M18.0044 15.0999H19.7486V14.2278C19.7486 13.7464 19.3579 13.3557 18.8765 13.3557C18.3951 13.3557 18.0044 13.7464 18.0044 14.2278V15.0999Z" fill="#393A96"/>
<path fill-rule="evenodd" clip-rule="evenodd" d="M27.8882 15.0999H29.6324V14.2278C29.6324 13.7464 29.2417 13.3557 28.7603 13.3557C28.2789 13.3557 27.8882 13.7464 27.8882 14.2278V15.0999Z" fill="#393A96"/>
</svg>
