<svg width="32" height="32" viewBox="0 0 32 32" fill="none" xmlns="http://www.w3.org/2000/svg">
<rect x="1" y="1" width="30" height="30" rx="15" stroke="black" stroke-opacity="0.4"/>
<path d="M22.4614 10.5614L21.439 9.53894C20.7205 8.82035 19.5515 8.82035 18.8329 9.53894L9.62686 18.7439C9.5661 18.8047 9.52714 18.8833 9.51525 18.9678L9.00406 22.5476C8.98623 22.6711 9.02783 22.7953 9.11567 22.8838C9.19031 22.9584 9.29135 23 9.39571 23C9.4142 23 9.43335 22.9987 9.45184 22.996L13.0315 22.4848C13.116 22.4729 13.1953 22.4333 13.2554 22.3732L22.4607 13.1676C23.1793 12.449 23.18 11.2799 22.4614 10.5614Z" fill="#393A96" stroke="#393A96" stroke-width="0.5"/>
<path d="M12.8447 21.5936L10 22L10.4064 19.1552L17.7021 11.8599L20.1398 14.2977L12.8447 21.5936ZM21.7017 12.7363L20.6848 13.7533L18.2471 11.3155L19.2641 10.2985C19.6621 9.90049 20.3099 9.90049 20.7079 10.2985L21.7017 11.2924C22.0998 11.6904 22.0998 12.3382 21.7017 12.7363Z" fill="white" stroke="#393A96"/>
</svg>
