<svg width="49" height="50" viewBox="0 0 49 50" fill="none" xmlns="http://www.w3.org/2000/svg">
<circle cx="24.5" cy="24.8557" r="24.5" fill="#ECECF5"/>
<path d="M24 24.8559C27.4978 24.8559 30.3333 22.0576 30.3333 18.6058C30.3333 15.154 27.4978 12.3557 24 12.3557C20.5022 12.3557 17.6666 15.154 17.6666 18.6058C17.6666 22.0576 20.5022 24.8559 24 24.8559Z" fill="#393A96"/>
<path d="M32.0846 25.639C31.7088 25.1847 31.1704 24.8903 30.5809 24.8165C29.9913 24.7427 29.3955 24.8953 28.9166 25.2426C27.4827 26.2556 25.7634 26.8003 23.9999 26.8001C22.2364 26.8 20.5171 26.2552 19.0833 25.242C18.6039 24.8951 18.008 24.743 17.4183 24.817C16.8286 24.891 16.2902 25.1855 15.914 25.6397C14.6737 27.1988 13.9997 29.1237 14 31.1059V32.4217C14.0016 33.7299 14.5288 34.984 15.4662 35.9091C16.4035 36.8341 17.6744 37.3544 19 37.356H29C30.3256 37.3544 31.5965 36.8341 32.5338 35.9091C33.4712 34.984 33.9984 33.7299 34 32.4217V31.1059C34.0003 29.1233 33.3258 27.198 32.0846 25.639Z" fill="#393A96"/>
</svg>