<svg width="50" height="50" viewBox="0 0 50 50" fill="none" xmlns="http://www.w3.org/2000/svg">
<circle cx="24.98" cy="24.5637" r="24.5" fill="#ECECF5"/>
<path d="M33.2801 20.0637C32.0668 20.0637 31.0801 19.0546 31.0801 17.8137C31.0801 16.5729 32.0668 15.5637 33.2801 15.5637C34.4934 15.5637 35.4801 16.5729 35.4801 17.8137C35.4801 19.0546 34.4934 20.0637 33.2801 20.0637Z" fill="#393A96"/>
<path d="M29.43 14.4387C30.3413 14.4387 31.08 13.6832 31.08 12.7512C31.08 11.8192 30.3413 11.0637 29.43 11.0637C28.5188 11.0637 27.78 11.8192 27.78 12.7512C27.78 13.6832 28.5188 14.4387 29.43 14.4387Z" fill="#393A96"/>
<path d="M34.0576 24.3312L26.9077 17.0186C26.4776 16.5788 25.7824 16.5788 25.3523 17.0186C24.9222 17.4585 24.9222 18.1695 25.3523 18.6094L25.5052 18.7658L14.8979 29.6153C13.9838 30.5502 13.48 31.7933 13.48 33.1152C13.48 35.8445 15.6503 38.0641 18.3189 38.0641C19.6114 38.0641 20.8269 37.5488 21.741 36.614L32.3493 25.7644L32.5022 25.9208C32.9323 26.3607 33.6275 26.3607 34.0576 25.9208C34.4877 25.482 34.4877 24.771 34.0576 24.3312ZM17.88 34.6891C17.2728 34.6891 16.78 34.1851 16.78 33.5641C16.78 32.9431 17.2728 32.4391 17.88 32.4391C18.4872 32.4391 18.98 32.9431 18.98 33.5641C18.98 34.1851 18.4872 34.6891 17.88 34.6891ZM22.28 31.3141C21.6728 31.3141 21.18 30.8101 21.18 30.1891C21.18 29.5681 21.6728 29.0641 22.28 29.0641C22.8872 29.0641 23.38 29.5681 23.38 30.1891C23.38 30.8101 22.8872 31.3141 22.28 31.3141ZM27.7502 27.2866C27.3103 27.4261 26.8076 27.3923 26.4149 27.1707L25.5492 26.6712C24.5658 26.1165 23.2953 26.1177 22.3031 26.6745L21.4517 27.1662C21.0942 27.3687 20.6465 27.4193 20.2428 27.3293L27.0606 20.3565L30.7928 24.1737L27.7502 27.2866Z" fill="#393A96"/>
<path d="M25.5359 24.2381C25.0871 24.6734 24.4227 24.6734 23.9739 24.2381L22.7749 23.0118L24.3369 21.4143L25.5359 22.6406C25.9649 23.0793 25.9649 23.7993 25.5359 24.2381Z" fill="#393A96"/>
</svg>
