<svg width="50" height="50" viewBox="0 0 50 50" fill="none" xmlns="http://www.w3.org/2000/svg">
<circle cx="24.98" cy="25.2097" r="24.5" fill="#ECECF5"/>
<path d="M17.3169 16.7864H19.019V15.0918H20.7283V13.4043H19.019V11.7097H17.3169V13.4043H15.6077V15.0918H17.3169V16.7864Z" fill="#393A96"/>
<path d="M13.8984 20.1824H15.6006V21.8699H13.8984V20.1824Z" fill="#393A96"/>
<path d="M12.1892 16.7927H13.8914V18.4803H12.1892V16.7927Z" fill="#393A96"/>
<path d="M32.2673 38.7097C35.9903 38.7097 39.0584 35.9321 39.4799 32.3533H25.0547C25.4761 35.9321 28.5443 38.7097 32.2673 38.7097Z" fill="#393A96"/>
<path d="M25.0547 30.6657H39.4798C39.0584 27.0868 35.9902 24.3093 32.2672 24.3093C28.5443 24.3093 25.4761 27.0868 25.0547 30.6657Z" fill="#393A96"/>
<path d="M23.9887 28.0944L17.4522 21.614L12.6071 26.4175C9.77094 29.2294 9.77094 33.7882 12.6071 36.6001C15.4433 39.4119 20.0416 39.4119 22.8778 36.6001L24.1676 35.3213C23.6134 34.1659 23.3028 32.8734 23.3028 31.5088C23.3028 30.2989 23.5471 29.1457 23.9887 28.0944Z" fill="#393A96"/>
<path d="M32.2674 22.6224C33.3841 22.6224 34.4527 22.8254 35.4388 23.1953C36.3716 20.6484 35.8083 17.6843 33.7482 15.6418C30.912 12.83 26.3136 12.83 23.4775 15.6418L18.6558 20.4222L24.8313 26.5447C26.442 24.1785 29.1714 22.6224 32.2674 22.6224Z" fill="#393A96"/>
</svg>