<svg width="49" height="50" viewBox="0 0 49 50" fill="none" xmlns="http://www.w3.org/2000/svg">
<circle cx="24.5" cy="25.2097" r="24.5" fill="#ECECF5"/>
<path d="M30.9506 17.9034C30.9506 17.7051 30.8757 17.5141 30.7408 17.3695L26.6247 12.9548C26.4787 12.7985 26.2753 12.7097 26.0626 12.7097H25.8053V18.1632H30.9506V17.9034Z" fill="#393A96"/>
<path d="M30.1713 28.0313C30.4356 28.0313 30.696 28.056 30.9506 28.1022V19.7213H25.0335C24.6072 19.7213 24.2617 19.3726 24.2617 18.9423V12.7097H15.7718C15.3455 12.7097 15 13.0585 15 13.4888V33.4848C15 33.9151 15.3455 34.2639 15.7718 34.2639H22.2632C22.3969 34.0777 22.5465 33.8993 22.7126 33.7316L27.0787 29.3246C27.9048 28.4907 29.0032 28.0313 30.1713 28.0313ZM21.4318 21.7988H22.2036V21.0197C22.2036 20.5896 22.5491 20.2406 22.9754 20.2406C23.4017 20.2406 23.7472 20.5896 23.7472 21.0197V21.7988H24.519C24.9451 21.7988 25.2908 22.1477 25.2908 22.5778C25.2908 23.0082 24.9451 23.3569 24.519 23.3569H23.7472V24.136C23.7472 24.5663 23.4017 24.9151 22.9754 24.9151C22.5491 24.9151 22.2036 24.5663 22.2036 24.136V23.3569H21.4318C21.0055 23.3569 20.66 23.0082 20.66 22.5778C20.66 22.1477 21.0055 21.7988 21.4318 21.7988ZM18.859 26.4732H27.0916C27.5179 26.4732 27.8634 26.8221 27.8634 27.2523C27.8634 27.6826 27.5179 28.0313 27.0916 28.0313H18.859C18.4329 28.0313 18.0872 27.6826 18.0872 27.2523C18.0872 26.8221 18.4329 26.4732 18.859 26.4732ZM24.0044 31.1476H18.859C18.4329 31.1476 18.0872 30.7989 18.0872 30.3685C18.0872 29.9382 18.4329 29.5895 18.859 29.5895H24.0044C24.4307 29.5895 24.7762 29.9382 24.7762 30.3685C24.7762 30.7989 24.4307 31.1476 24.0044 31.1476Z" fill="#393A96"/>
<path d="M23.804 34.8331C22.7006 35.9469 22.7006 37.759 23.804 38.8729C24.3385 39.4126 25.0493 39.7096 25.8052 39.7096C26.5611 39.7096 27.2716 39.4126 27.8063 38.8729L29.4434 37.2204L25.4413 33.1804L23.804 34.8331Z" fill="#393A96"/>
<path d="M32.1725 30.4263C31.638 29.8868 30.9272 29.5896 30.1713 29.5896C29.4154 29.5896 28.7048 29.8868 28.1704 30.4263L26.5331 32.079L30.5352 36.1188L32.1725 34.4661C33.2759 33.3523 33.2759 31.5402 32.1725 30.4263Z" fill="#393A96"/>
</svg>
