<svg width="49" height="50" viewBox="0 0 49 50" fill="none" xmlns="http://www.w3.org/2000/svg">
<circle cx="24.5" cy="24.5637" r="24.5" fill="#ECECF5"/>
<path d="M37.9391 32.4307C37.7568 31.8712 37.2013 31.5344 36.6457 31.6479L28.4836 33.3409C27.9687 33.911 27.239 34.268 26.4316 34.268H21.3407V32.6768H26.4316C27.1466 32.6768 27.7285 32.069 27.7285 31.3217C27.7285 30.5744 27.1466 29.9666 26.4316 29.9666H22.4757L22.1035 29.5094C21.5053 28.7749 20.6323 28.3538 19.7091 28.3538H18.2674C17.428 28.3538 16.6384 28.6953 16.0442 29.3153L15.8213 29.5487H12V36.3953H16.5866L16.6536 36.408L24.8583 37.9588C25.777 38.1328 26.7378 38.0898 27.6391 37.8363L37.2744 33.9184C37.8431 33.6877 38.1351 33.0343 37.9391 32.4307Z" fill="#393A96"/>
<path d="M27.2142 23.1711C27.2142 23.8659 27.7556 24.4313 28.4208 24.4313H30.0174V21.9104H28.4208C27.7556 21.9104 27.2142 22.4758 27.2142 23.1711Z" fill="#393A96"/>
<path d="M31.5406 24.4313H33.1372C33.8025 24.4313 34.3438 23.8659 34.3438 23.1711C34.3438 22.4758 33.8025 21.9104 33.1372 21.9104H31.5406V24.4313Z" fill="#393A96"/>
<path d="M25 26.8826L26.5585 25.2549C26.0102 24.7231 25.6883 23.9594 25.6906 23.1716C25.6906 21.5991 26.9154 20.3198 28.4206 20.3198H31.2842L31.5812 20.0095C32.5288 19.0193 33.0509 17.7035 33.0509 16.3033C33.0509 14.9036 32.5288 13.5872 31.5812 12.5975C29.7907 10.728 26.9723 10.5678 25 12.1165C23.0276 10.5678 20.2093 10.7274 18.4187 12.5975C17.4711 13.5872 16.9491 14.9036 16.9491 16.3033C16.9491 17.7035 17.4711 19.0193 18.4187 20.0095L25 26.8826ZM22.6894 15.8132H24.2383V14.1956H25.7617V15.8132H27.3105V17.4043H25.7617V19.022H24.2383V17.4043H22.6894V15.8132Z" fill="#393A96"/>
</svg>
