<svg width="16" height="16" viewBox="0 0 16 16" fill="none" xmlns="http://www.w3.org/2000/svg">
<path d="M14.7709 8.31464C14.7034 8.11022 14.7034 7.88979 14.7709 7.68535L15.2669 6.15833C15.4038 5.73879 15.2527 5.27838 14.8954 5.01883L13.5976 4.07488C13.4234 3.94866 13.2937 3.76913 13.2261 3.56469L12.7301 2.03766C12.595 1.61813 12.2022 1.3337 11.7613 1.3337H10.1561C9.94096 1.3337 9.73119 1.26615 9.55698 1.13815L8.25749 0.195985C7.90018 -0.0653284 7.41666 -0.0653284 7.05934 0.195985L5.75986 1.13815C5.58565 1.26615 5.37587 1.3337 5.16078 1.3337H3.55553C3.11467 1.3337 2.7218 1.61813 2.58669 2.03766L2.09073 3.56469C2.02317 3.76913 1.89341 3.94866 1.7192 4.07488L0.421483 5.01883C0.0641785 5.27838 -0.0869307 5.73879 0.049954 6.15833L0.545923 7.68535C0.613475 7.88979 0.613475 8.11022 0.545923 8.31464L0.049954 9.84167C-0.0869307 10.2612 0.0641785 10.7216 0.421483 10.9812L1.7192 11.9251C1.89341 12.0513 2.02317 12.2309 2.09073 12.4353L2.58669 13.9623C2.7218 14.3819 3.11467 14.6663 3.55553 14.6663H5.16078C5.37587 14.6663 5.58565 14.7339 5.75986 14.8618L7.05934 15.804C7.41666 16.0653 7.90018 16.0653 8.25749 15.804L9.55698 14.8618C9.73119 14.7339 9.94096 14.6663 10.1561 14.6663H11.7613C12.2022 14.6663 12.595 14.3819 12.7301 13.9623L13.2261 12.4353C13.2937 12.2309 13.4234 12.0513 13.5976 11.9251L14.8954 10.9812C15.2527 10.7216 15.4038 10.2612 15.2669 9.84167L14.7709 8.31464ZM11.8484 5.63035L6.47982 10.9989C6.39627 11.0825 6.2825 11.1287 6.16516 11.1287C6.04784 11.1287 5.93407 11.0825 5.85052 10.9989L3.46843 8.61685C3.296 8.44264 3.296 8.16177 3.46843 7.98756C3.64264 7.81512 3.92351 7.81512 4.09772 7.98756L6.16516 10.055L11.2191 5.00106C11.3933 4.82862 11.6742 4.82862 11.8484 5.00106C12.0208 5.17527 12.0208 5.45614 11.8484 5.63035Z" fill="#12B76A"/>
</svg>
