<svg width="16" height="16" viewBox="0 0 16 16" fill="none" xmlns="http://www.w3.org/2000/svg">
<path d="M13.0899 0H2.90887C2.73462 0.00200636 2.56687 0.0665231 2.43618 0.181805C2.95479 0.364265 3.41107 0.689955 3.75215 1.12113C4.09323 1.5523 4.30514 2.07131 4.36331 2.61799C4.37443 2.71463 4.37443 2.81223 4.36331 2.90887V15.2716C4.36297 15.4107 4.40252 15.547 4.47728 15.6643C4.55204 15.7815 4.65887 15.8749 4.7851 15.9334C4.91163 15.9916 5.05222 16.0123 5.19016 15.993C5.3281 15.9736 5.45759 15.9151 5.56322 15.8243L7.6358 14.0499L9.70837 15.8243C9.84009 15.9369 10.0077 15.9989 10.1811 15.9989C10.3544 15.9989 10.522 15.9369 10.6538 15.8243L12.7263 14.0499L14.7989 15.8243C14.9306 15.9369 15.0983 15.9988 15.2716 15.9988C15.3768 15.9981 15.4807 15.9758 15.577 15.9334C15.7033 15.8749 15.8101 15.7815 15.8848 15.6643C15.9596 15.547 15.9992 15.4107 15.9988 15.2716V2.90887C15.9988 2.13739 15.6923 1.39751 15.1468 0.85199C14.6013 0.30647 13.8614 0 13.0899 0ZM12.3627 10.1811H7.99941C7.80654 10.1811 7.62156 10.1044 7.48519 9.96807C7.3488 9.83169 7.27219 9.64671 7.27219 9.45384C7.27219 9.26097 7.3488 9.076 7.48519 8.93962C7.62156 8.80324 7.80654 8.72663 7.99941 8.72663H12.3627C12.5556 8.72663 12.7406 8.80324 12.8769 8.93962C13.0133 9.076 13.0899 9.26097 13.0899 9.45384C13.0899 9.64671 13.0133 9.83169 12.8769 9.96807C12.7406 10.1044 12.5556 10.1811 12.3627 10.1811ZM12.3627 7.27219H7.99941C7.80654 7.27219 7.62156 7.19557 7.48519 7.05919C7.3488 6.92281 7.27219 6.73784 7.27219 6.54497C7.27219 6.3521 7.3488 6.16713 7.48519 6.03075C7.62156 5.89437 7.80654 5.81775 7.99941 5.81775H12.3627C12.5556 5.81775 12.7406 5.89437 12.8769 6.03075C13.0133 6.16713 13.0899 6.3521 13.0899 6.54497C13.0899 6.73784 13.0133 6.92281 12.8769 7.05919C12.7406 7.19557 12.5556 7.27219 12.3627 7.27219ZM12.3627 4.36331H7.99941C7.80654 4.36331 7.62156 4.2867 7.48519 4.15031C7.3488 4.01394 7.27219 3.82896 7.27219 3.63609C7.27219 3.44322 7.3488 3.25825 7.48519 3.12187C7.62156 2.98549 7.80654 2.90887 7.99941 2.90887H12.3627C12.5556 2.90887 12.7406 2.98549 12.8769 3.12187C13.0133 3.25825 13.0899 3.44322 13.0899 3.63609C13.0899 3.82896 13.0133 4.01394 12.8769 4.15031C12.7406 4.2867 12.5556 4.36331 12.3627 4.36331ZM2.90887 2.90887V8.72663H0.727219C0.534348 8.72663 0.349377 8.65001 0.212997 8.51363C0.0766174 8.37725 0 8.19228 0 7.99941V2.90887C0 2.80706 0 2.71253 0 2.61799C0.0385741 2.23225 0.228803 1.87763 0.528839 1.63214C0.828875 1.38666 1.21414 1.27042 1.59988 1.30899C1.98562 1.34757 2.34024 1.5378 2.58572 1.83783C2.83121 2.13787 2.94745 2.52313 2.90887 2.90887Z" fill="#0957DE"/>
</svg>
